<?xml version="1.0" encoding="utf-8"?>
<!-- Generator: Adobe Illustrator 24.1.0, SVG Export Plug-In . SVG Version: 6.00 Build 0)  -->
<svg version="1.1" id="Layer_1" xmlns="http://www.w3.org/2000/svg" xmlns:xlink="http://www.w3.org/1999/xlink" x="0px" y="0px"
	 viewBox="0 0 288 288" style="enable-background:new 0 0 288 288;" xml:space="preserve">
<style type="text/css">
	.st0{opacity:0.49;fill:url(#SVGID_1_);enable-background:new    ;}
	.st1{fill:#FF0AE0;}
	.st2{fill:#FFFFFF;}
	.st3{fill:#00131F;}
	.st4{fill:#B4FFED;}
	.st5{fill:#C9FEFF;}
	.st6{opacity:0.8;}
	.st7{fill:#A1A1A1;}
</style>
<g>
	
		<radialGradient id="SVGID_1_" cx="-163.1934" cy="-83.4439" r="204.8203" gradientTransform="matrix(0.9908 -0.1355 -0.1355 -0.9908 288.9107 36.7667)" gradientUnits="userSpaceOnUse">
		<stop  offset="0.2236" style="stop-color:#FF15C0"/>
		<stop  offset="1" style="stop-color:#FF8001"/>
	</radialGradient>
	<path class="st0" d="M88.1,28.3c-2.8,3.8-4.3,8.4-6.9,12.3c-7,10.9-20.4,15.2-32.4,20c-12,4.8-24.9,12.6-27.1,25.3
		c-3,16.8,14.4,31.4,14.1,48.5c-0.2,15.4-14.7,27.9-15.1,43.3c-0.5,18.7,19.1,31.4,25.7,49c4,10.8,2.9,22.8,6.1,33.8
		c4,13.7,17.8,25.9,31.7,22.4c11.8-3,18.2-15.4,26.2-24.6c15.9-18.4,43.3-25.9,66.4-18.3c8.2,2.7,16,7.1,24.6,7.2
		c13.7,0.2,25.3-10.5,38.8-12.6c3.6-0.6,7.3-0.5,10.6-1.9c4.9-2,8.1-6.7,10.7-11.3c6.5-12.1,10-27.2,3.9-39.6
		c-5.4-11-17-17.5-24.8-27c-8.6-10.5-12.1-24.9-9.3-38.2c2.2-10.7,8.2-20.2,12-30.5c3.2-8.6,4.9-17.8,5-27.1
		c0.1-9.1-1.7-18.8-7.9-25.6c-9.7-10.7-26.3-10.5-39.8-15.5C188,13.2,176.4,3.3,162.9,4.2c-8.2,0.6-15.3,5.1-23.2,6.9
		c-5.4,1.2-9.7,0-15-0.1C113.1,10.8,95.1,18.9,88.1,28.3z"/>
	<path class="st1" d="M102.3,20c-3.5,3.5-5.7,8.1-8.9,11.8C84.6,42,70.1,44.6,56.9,47.9c-13.1,3.3-27.6,9.5-31.7,22.4
		C19.8,87.4,35.7,105,33,122.7c-2.4,16-19.2,26.9-21.8,42.8c-3.1,19.4,15.4,35.4,19.7,54.5c2.6,11.7-0.3,24.1,1.5,36
		c2.2,14.8,14.8,29.5,29.7,27.7c12.7-1.5,21-13.4,30.6-21.8c19.2-16.8,48.6-20.8,71.5-9.6c8.1,3.9,15.6,9.6,24.5,11
		c14.2,2.1,27.8-7.4,42.1-7.6c3.8-0.1,7.6,0.5,11.3-0.4c5.4-1.4,9.4-5.8,12.7-10.3c8.5-11.7,14.2-26.9,9.7-40.6
		c-4-12.2-15.2-20.6-21.9-31.6c-7.4-12.1-9-27.6-4.3-41c3.8-10.8,11.4-19.8,16.8-29.9c4.6-8.5,7.6-17.8,9-27.4
		c1.4-9.5,0.9-19.8-4.5-27.7c-8.6-12.5-25.8-14.6-39.1-21.7c-12.6-6.7-23.2-18.6-37.3-19.6c-8.6-0.6-16.6,3.1-25.1,3.9
		c-5.8,0.5-10.1-1.3-15.6-2.2C130.8,5.3,110.9,11.3,102.3,20z"/>
	<g>
		<g>
			<path class="st2" d="M125.8,208.1c2.4,2,3.6,4.7,3.6,8.1c0,2.2-0.6,4.2-1.7,6.1s-2.9,3.3-5.3,4.4c-2.3,1.1-5.3,1.6-8.7,1.6
				c-2.5,0-5.1-0.3-7.5-0.9c-2.5-0.6-4.6-1.5-6.4-2.6l3.7-7.6c1.4,0.9,3,1.7,4.8,2.2c1.7,0.5,3.5,0.8,5.2,0.8s3.2-0.3,4.2-1
				c1.1-0.7,1.6-1.6,1.6-2.8s-0.5-2.1-1.5-2.7s-2.8-0.9-5.5-0.9h-9.8l1.8-20.8h23v7.8h-14.5l-0.5,5.2h2.4
				C119.7,205,123.4,206,125.8,208.1z"/>
			<path class="st2" d="M139.8,226.1c-2.4-1.5-4.3-3.6-5.6-6.4s-2-6.1-2-9.9s0.7-7.1,2-9.9c1.4-2.8,3.2-4.9,5.6-6.4
				c2.4-1.5,5.1-2.2,8.2-2.2c3.1,0,5.8,0.7,8.2,2.2c2.4,1.5,4.3,3.6,5.6,6.4s2,6.1,2,9.9c0,3.8-0.7,7.1-2,9.9
				c-1.4,2.8-3.2,4.9-5.6,6.4c-2.4,1.5-5.1,2.2-8.2,2.2C144.9,228.3,142.2,227.6,139.8,226.1z M152.1,217.6c1-1.6,1.5-4.2,1.5-7.8
				s-0.5-6.1-1.5-7.8c-1-1.6-2.4-2.5-4.1-2.5c-1.8,0-3.1,0.8-4.1,2.5c-1,1.6-1.5,4.2-1.5,7.8s0.5,6.1,1.5,7.8c1,1.6,2.4,2.5,4.1,2.5
				C149.7,220.1,151.1,219.3,152.1,217.6z"/>
			<path class="st2" d="M167.5,199.6c-1-1-1.5-2.4-1.5-4.2c0-1.2,0.2-2.2,0.7-3.1c0.5-0.9,1.1-1.5,1.9-2c0.8-0.5,1.7-0.7,2.8-0.7
				c1.6,0,2.9,0.5,3.9,1.6c1,1,1.5,2.4,1.5,4.2c0,1.8-0.5,3.2-1.5,4.2c-1,1-2.3,1.5-3.9,1.5C169.8,201.2,168.5,200.7,167.5,199.6z
				 M183.8,190h4.3l-14.4,20.7h-4.3L183.8,190z M172.7,197.7c0.3-0.5,0.5-1.2,0.5-2.2s-0.2-1.8-0.5-2.2c-0.3-0.5-0.8-0.7-1.3-0.7
				c-0.5,0-0.9,0.2-1.3,0.7c-0.3,0.5-0.5,1.2-0.5,2.2s0.2,1.7,0.5,2.2c0.3,0.5,0.8,0.7,1.3,0.7C171.9,198.4,172.4,198.1,172.7,197.7
				z M182.4,209.4c-1-1-1.5-2.4-1.5-4.2c0-1.8,0.5-3.1,1.5-4.2c1-1,2.3-1.6,3.9-1.6c1.6,0,2.9,0.5,3.9,1.6c1,1,1.5,2.4,1.5,4.2
				c0,1.8-0.5,3.2-1.5,4.2c-1,1-2.3,1.5-3.9,1.5C184.6,211,183.4,210.4,182.4,209.4z M187.5,207.4c0.3-0.5,0.5-1.2,0.5-2.2
				s-0.2-1.8-0.5-2.2c-0.3-0.5-0.8-0.7-1.3-0.7s-1,0.2-1.3,0.7c-0.3,0.5-0.5,1.2-0.5,2.2s0.2,1.8,0.5,2.2c0.3,0.5,0.8,0.7,1.3,0.7
				C186.8,208.1,187.2,207.9,187.5,207.4z"/>
		</g>
		<g>
			<path class="st2" d="M176.1,222.1c0,1.8-0.4,3.2-1.3,4.1s-2.2,1.4-3.9,1.4c-1.7,0-3-0.5-3.9-1.4c-0.9-0.9-1.4-2.3-1.4-4.1
				c0-1.8,0.4-3.1,1.4-4.1c0.9-0.9,2.2-1.4,3.9-1.4c1.7,0,3,0.5,3.9,1.4C175.7,218.9,176.1,220.3,176.1,222.1z M168.7,222.1
				c0,2.1,0.7,3.1,2.2,3.1c0.7,0,1.3-0.3,1.6-0.8s0.5-1.3,0.5-2.3c0-1.1-0.2-1.9-0.5-2.4s-0.9-0.8-1.6-0.8
				C169.4,219,168.7,220,168.7,222.1z"/>
			<path class="st2" d="M181.8,227.4H179v-10.7h6.4v2.3h-3.5v2h3.2v2.3h-3.2V227.4z"/>
			<path class="st2" d="M190.9,227.4H188v-10.7h6.4v2.3h-3.5v2h3.2v2.3h-3.2V227.4z"/>
		</g>
		<g>
			<path class="st2" d="M109.9,183.9c0,0.7-0.2,1.3-0.5,1.8c-0.3,0.5-0.8,0.9-1.5,1.2c-0.6,0.3-1.4,0.4-2.3,0.4
				c-0.7,0-1.3-0.1-1.8-0.1c-0.5-0.1-1-0.3-1.5-0.5v-2.6c0.6,0.3,1.1,0.5,1.7,0.7s1.2,0.2,1.7,0.2c0.4,0,0.8-0.1,0.9-0.2
				s0.3-0.3,0.3-0.6c0-0.1,0-0.3-0.1-0.4s-0.2-0.2-0.4-0.3s-0.7-0.3-1.4-0.7c-0.7-0.3-1.2-0.6-1.6-0.9c-0.3-0.3-0.6-0.6-0.8-1
				s-0.3-0.8-0.3-1.4c0-1,0.4-1.8,1.1-2.3c0.7-0.6,1.7-0.8,3-0.8c1.1,0,2.3,0.3,3.4,0.8l-0.9,2.2c-1-0.5-1.9-0.7-2.6-0.7
				c-0.4,0-0.7,0.1-0.8,0.2c-0.2,0.1-0.3,0.3-0.3,0.5c0,0.2,0.1,0.4,0.3,0.6c0.2,0.2,0.8,0.5,1.8,0.9c0.9,0.4,1.6,0.9,1.9,1.3
				C109.7,182.6,109.9,183.2,109.9,183.9z"/>
			<path class="st2" d="M119.1,187.1l-0.5-2h-3.5l-0.6,2h-3.2l3.5-10.7h3.9l3.6,10.7H119.1z M118,182.8l-0.5-1.8
				c-0.1-0.4-0.2-0.9-0.4-1.5s-0.3-1.1-0.3-1.3c0,0.3-0.1,0.7-0.3,1.2c-0.1,0.6-0.4,1.7-0.9,3.4H118z"/>
			<path class="st2" d="M130.4,176.5h3.3l-3.5,10.7h-3.4l-3.5-10.7h3.3l1.5,5.4c0.3,1.2,0.5,2,0.5,2.5c0-0.3,0.1-0.8,0.2-1.3
				c0.1-0.5,0.2-0.9,0.3-1.2L130.4,176.5z"/>
			<path class="st2" d="M142.2,187.1h-6.4v-10.7h6.4v2.3h-3.5v1.7h3.2v2.3h-3.2v2h3.5V187.1z"/>
			<path class="st2" d="M159,176.5v6.4c0,1.4-0.4,2.5-1.2,3.2c-0.8,0.8-2,1.1-3.5,1.1c-1.5,0-2.6-0.4-3.4-1.1
				c-0.8-0.7-1.2-1.8-1.2-3.2v-6.5h2.9v6.3c0,0.8,0.1,1.3,0.4,1.6s0.7,0.5,1.3,0.5c0.6,0,1-0.2,1.3-0.5s0.4-0.9,0.4-1.7v-6.2
				L159,176.5L159,176.5z"/>
			<path class="st2" d="M170.1,179.9c0,1.2-0.4,2.1-1.1,2.8s-1.7,1-3,1h-0.8v3.5h-2.9v-10.7h3.7c1.4,0,2.4,0.3,3.1,0.9
				C169.7,177.9,170.1,178.8,170.1,179.9z M165.1,181.3h0.5c0.4,0,0.8-0.1,1.1-0.4c0.3-0.2,0.4-0.6,0.4-1c0-0.7-0.4-1.1-1.2-1.1
				h-0.8L165.1,181.3L165.1,181.3z"/>
			<path class="st2" d="M177.5,187.1h-2.9v-8.3h-2.6v-2.4h8.2v2.4h-2.6V187.1z"/>
			<path class="st2" d="M192.7,181.8c0,1.8-0.4,3.2-1.3,4.1s-2.2,1.4-3.9,1.4c-1.7,0-3-0.5-3.9-1.4c-0.9-0.9-1.4-2.3-1.4-4.1
				c0-1.8,0.4-3.1,1.4-4.1c0.9-0.9,2.2-1.4,3.9-1.4c1.7,0,3,0.5,3.9,1.4C192.2,178.6,192.7,180,192.7,181.8z M185.2,181.8
				c0,2.1,0.7,3.1,2.2,3.1c0.7,0,1.3-0.3,1.6-0.8s0.5-1.3,0.5-2.3s-0.2-1.9-0.5-2.4s-0.9-0.8-1.6-0.8
				C186,178.7,185.2,179.7,185.2,181.8z"/>
		</g>
	</g>
	<g>
		<path class="st3" d="M78.8,150.4c-2.7-0.6-4.9-1.5-6.7-2.5l3.7-8.3c1.6,0.9,3.5,1.7,5.5,2.3s4,0.9,5.8,0.9c1.6,0,2.8-0.1,3.4-0.5
			c0.7-0.3,1-0.8,1-1.4c0-0.7-0.4-1.2-1.3-1.6s-2.4-0.7-4.4-1.2c-2.7-0.6-4.9-1.1-6.6-1.8s-3.3-1.7-4.6-3.1c-1.3-1.4-2-3.4-2-5.8
			c0-2.1,0.6-4.1,1.8-5.8c1.2-1.7,3-3.1,5.4-4.1c2.4-1,5.3-1.5,8.8-1.5c2.4,0,4.7,0.3,6.9,0.8c2.3,0.5,4.3,1.2,6,2.2l-3.5,8.3
			c-3.4-1.7-6.6-2.5-9.6-2.5c-3,0-4.5,0.7-4.5,2.1c0,0.7,0.4,1.2,1.3,1.5c0.9,0.3,2.3,0.7,4.4,1.1c2.6,0.5,4.8,1,6.6,1.7
			c1.8,0.6,3.4,1.6,4.7,3.1c1.3,1.4,2,3.4,2,5.8c0,2.1-0.6,4.1-1.8,5.8s-3,3.1-5.4,4.1c-2.4,1-5.3,1.5-8.8,1.5
			C84.3,151.4,81.5,151.1,78.8,150.4z"/>
		<path class="st4" d="M132.4,144.7h-13.1l-2.3,5.9h-11.8l15-33.9h11.4l15,33.9h-12L132.4,144.7z M129.3,136.5l-3.3-8.5l-3.3,8.5
			H129.3z"/>
		<path class="st3" d="M151,116.7h11.6v25h15.5v8.9H151L151,116.7L151,116.7z"/>
		<path class="st5" d="M212.4,142v8.6h-28.6v-33.9h27.9v8.6h-16.5v4h14.5v8.2h-14.5v4.5H212.4z"/>
	</g>
	<g>
		<path class="st3" d="M85.3,99.2c-1.4-0.3-2.5-0.8-3.4-1.3l1.9-4.3c0.8,0.5,1.8,0.9,2.8,1.2c1.1,0.3,2.1,0.4,3,0.4
			c0.8,0,1.4-0.1,1.8-0.2c0.3-0.2,0.5-0.4,0.5-0.7c0-0.4-0.2-0.6-0.7-0.8c-0.5-0.2-1.2-0.4-2.3-0.6c-1.4-0.3-2.5-0.6-3.4-0.9
			c-0.9-0.3-1.7-0.9-2.4-1.6c-0.7-0.7-1-1.8-1-3c0-1.1,0.3-2.1,0.9-3c0.6-0.9,1.6-1.6,2.8-2.1c1.2-0.5,2.8-0.8,4.5-0.8
			c1.2,0,2.4,0.1,3.6,0.4c1.2,0.3,2.2,0.6,3.1,1.1l-1.8,4.3c-1.7-0.9-3.4-1.3-4.9-1.3c-1.5,0-2.3,0.4-2.3,1.1c0,0.3,0.2,0.6,0.7,0.8
			c0.5,0.2,1.2,0.4,2.3,0.6c1.3,0.3,2.5,0.5,3.4,0.9c0.9,0.3,1.7,0.8,2.4,1.6c0.7,0.7,1,1.7,1,3c0,1.1-0.3,2.1-0.9,3
			c-0.6,0.9-1.6,1.6-2.8,2.1c-1.2,0.5-2.8,0.8-4.5,0.8C88.1,99.7,86.7,99.6,85.3,99.2z"/>
		<path class="st3" d="M113.7,82.6c1.2,0.5,2.2,1.3,2.8,2.3c0.7,1,1,2.2,1,3.5s-0.3,2.5-1,3.5c-0.7,1-1.6,1.8-2.8,2.3
			c-1.2,0.5-2.6,0.8-4.3,0.8h-2.6v4.3h-6V81.8h8.5C111.1,81.8,112.5,82.1,113.7,82.6z M110.9,89.9c0.4-0.4,0.6-0.9,0.6-1.5
			s-0.2-1.2-0.6-1.5s-1-0.5-1.8-0.5h-2.2v4.1h2.2C109.9,90.5,110.5,90.3,110.9,89.9z"/>
		<path class="st3" d="M135.5,94.9v4.4h-14.8V81.8h14.4v4.4h-8.5v2.1h7.5v4.3h-7.5v2.3H135.5z"/>
		<path class="st3" d="M143.2,98.6c-1.5-0.8-2.7-1.9-3.5-3.3c-0.9-1.4-1.3-3-1.3-4.7s0.4-3.3,1.3-4.7s2-2.5,3.5-3.3
			c1.5-0.8,3.2-1.2,5.1-1.2c1.7,0,3.3,0.3,4.6,0.9s2.5,1.5,3.4,2.6l-3.8,3.3c-1.1-1.4-2.4-2.1-3.9-2.1c-1.3,0-2.3,0.4-3,1.2
			c-0.8,0.8-1.1,1.8-1.1,3.2c0,1.3,0.4,2.4,1.1,3.2s1.8,1.2,3,1.2c1.5,0,2.8-0.7,3.9-2.1l3.8,3.3c-0.9,1.1-2,2-3.4,2.6
			c-1.4,0.6-2.9,0.9-4.6,0.9C146.4,99.7,144.7,99.3,143.2,98.6z"/>
		<path class="st3" d="M159.2,81.8h6v17.5h-6V81.8z"/>
		<path class="st3" d="M181.4,96.3h-6.7l-1.2,3.1h-6.1l7.8-17.5h5.9l7.8,17.5h-6.2L181.4,96.3z M179.8,92l-1.7-4.4l-1.7,4.4H179.8z"
			/>
		<path class="st3" d="M191,81.8h6v12.9h8v4.6h-14L191,81.8L191,81.8z"/>
	</g>
	<g class="st6">
		
			<image style="overflow:visible;enable-background:new    ;" width="796" height="321" xlink:href="A2270DF.png"  transform="matrix(0.2363 0 0 0.2237 48.1779 98.32)">
		</image>
	</g>
	<g>
		<path class="st2" d="M230,163H58v-57.6H230L230,163L230,163z M60,161H228v-53.6H60V161z"/>
	</g>
	<g>
		<path class="st2" d="M48.5,50.3c0.4,0,0.7-0.3,0.7-0.7s-0.3-0.7-0.7-0.7s-0.7,0.3-0.7,0.7C47.8,50,48.1,50.3,48.5,50.3z"/>
		<path class="st2" d="M54.5,50.3c0.4,0,0.7-0.3,0.7-0.7s-0.3-0.7-0.7-0.7s-0.7,0.3-0.7,0.7C53.8,50,54.1,50.3,54.5,50.3z"/>
		<path class="st2" d="M60.5,50.3c0.4,0,0.7-0.3,0.7-0.7s-0.3-0.7-0.7-0.7s-0.7,0.3-0.7,0.7C59.8,50,60.1,50.3,60.5,50.3z"/>
		<path class="st2" d="M66.5,50.3c0.4,0,0.7-0.3,0.7-0.7s-0.3-0.7-0.7-0.7s-0.7,0.3-0.7,0.7C65.8,50,66.1,50.3,66.5,50.3z"/>
		<path class="st2" d="M72.5,50.3c0.4,0,0.7-0.3,0.7-0.7s-0.3-0.7-0.7-0.7s-0.7,0.3-0.7,0.7C71.8,50,72.1,50.3,72.5,50.3z"/>
		<path class="st2" d="M48.5,56.3c0.4,0,0.7-0.3,0.7-0.7s-0.3-0.7-0.7-0.7s-0.7,0.3-0.7,0.7C47.8,56,48.1,56.3,48.5,56.3z"/>
		<path class="st2" d="M54.5,56.3c0.4,0,0.7-0.3,0.7-0.7s-0.3-0.7-0.7-0.7s-0.7,0.3-0.7,0.7C53.8,56,54.1,56.3,54.5,56.3z"/>
		<path class="st2" d="M60.5,56.3c0.4,0,0.7-0.3,0.7-0.7s-0.3-0.7-0.7-0.7s-0.7,0.3-0.7,0.7C59.8,56,60.1,56.3,60.5,56.3z"/>
		<path class="st2" d="M66.5,56.3c0.4,0,0.7-0.3,0.7-0.7s-0.3-0.7-0.7-0.7s-0.7,0.3-0.7,0.7C65.8,56,66.1,56.3,66.5,56.3z"/>
		<path class="st2" d="M72.5,56.3c0.4,0,0.7-0.3,0.7-0.7s-0.3-0.7-0.7-0.7s-0.7,0.3-0.7,0.7C71.8,56,72.1,56.3,72.5,56.3z"/>
		<path class="st2" d="M48.5,62.3c0.4,0,0.7-0.3,0.7-0.7s-0.3-0.7-0.7-0.7s-0.7,0.3-0.7,0.7C47.8,62,48.1,62.3,48.5,62.3z"/>
		<path class="st2" d="M54.5,62.3c0.4,0,0.7-0.3,0.7-0.7s-0.3-0.7-0.7-0.7s-0.7,0.3-0.7,0.7C53.8,62,54.1,62.3,54.5,62.3z"/>
		<path class="st2" d="M60.5,62.3c0.4,0,0.7-0.3,0.7-0.7s-0.3-0.7-0.7-0.7s-0.7,0.3-0.7,0.7C59.8,62,60.1,62.3,60.5,62.3z"/>
		<path class="st2" d="M66.5,62.3c0.4,0,0.7-0.3,0.7-0.7s-0.3-0.7-0.7-0.7s-0.7,0.3-0.7,0.7C65.8,62,66.1,62.3,66.5,62.3z"/>
		<path class="st2" d="M72.5,62.3c0.4,0,0.7-0.3,0.7-0.7s-0.3-0.7-0.7-0.7s-0.7,0.3-0.7,0.7C71.8,62,72.1,62.3,72.5,62.3z"/>
		<path class="st2" d="M48.5,68.3c0.4,0,0.7-0.3,0.7-0.7s-0.3-0.7-0.7-0.7s-0.7,0.3-0.7,0.7C47.8,68,48.1,68.3,48.5,68.3z"/>
		<path class="st2" d="M54.5,68.3c0.4,0,0.7-0.3,0.7-0.7s-0.3-0.7-0.7-0.7s-0.7,0.3-0.7,0.7C53.8,68,54.1,68.3,54.5,68.3z"/>
		<path class="st2" d="M60.5,68.3c0.4,0,0.7-0.3,0.7-0.7s-0.3-0.7-0.7-0.7s-0.7,0.3-0.7,0.7C59.8,68,60.1,68.3,60.5,68.3z"/>
		<path class="st2" d="M66.5,68.3c0.4,0,0.7-0.3,0.7-0.7s-0.3-0.7-0.7-0.7s-0.7,0.3-0.7,0.7C65.8,68,66.1,68.3,66.5,68.3z"/>
		<path class="st2" d="M72.5,68.3c0.4,0,0.7-0.3,0.7-0.7s-0.3-0.7-0.7-0.7s-0.7,0.3-0.7,0.7C71.8,68,72.1,68.3,72.5,68.3z"/>
		<path class="st2" d="M48.5,74.3c0.4,0,0.7-0.3,0.7-0.7s-0.3-0.7-0.7-0.7s-0.7,0.3-0.7,0.7C47.8,74,48.1,74.3,48.5,74.3z"/>
		<path class="st2" d="M54.5,74.3c0.4,0,0.7-0.3,0.7-0.7s-0.3-0.7-0.7-0.7s-0.7,0.3-0.7,0.7C53.8,74,54.1,74.3,54.5,74.3z"/>
		<path class="st2" d="M60.5,74.3c0.4,0,0.7-0.3,0.7-0.7s-0.3-0.7-0.7-0.7s-0.7,0.3-0.7,0.7C59.8,74,60.1,74.3,60.5,74.3z"/>
		<path class="st2" d="M66.5,74.3c0.4,0,0.7-0.3,0.7-0.7s-0.3-0.7-0.7-0.7s-0.7,0.3-0.7,0.7C65.8,74,66.1,74.3,66.5,74.3z"/>
		<path class="st2" d="M72.5,74.3c0.4,0,0.7-0.3,0.7-0.7s-0.3-0.7-0.7-0.7s-0.7,0.3-0.7,0.7C71.8,74,72.1,74.3,72.5,74.3z"/>
	</g>
	<g>
		<path class="st7" d="M194,180.6c1.1,0,1.9-0.9,1.9-1.9s-0.9-1.9-1.9-1.9s-1.9,0.9-1.9,1.9C192,179.7,192.9,180.6,194,180.6z"/>
		<path class="st7" d="M210.7,180.6c1.1,0,1.9-0.9,1.9-1.9s-0.9-1.9-1.9-1.9s-1.9,0.9-1.9,1.9C208.8,179.7,209.6,180.6,210.7,180.6z
			"/>
		<path class="st7" d="M227.5,180.6c1.1,0,1.9-0.9,1.9-1.9s-0.9-1.9-1.9-1.9s-1.9,0.9-1.9,1.9C225.5,179.7,226.4,180.6,227.5,180.6z
			"/>
		<path class="st7" d="M244.2,180.6c1.1,0,1.9-0.9,1.9-1.9s-0.9-1.9-1.9-1.9s-1.9,0.9-1.9,1.9C242.3,179.7,243.1,180.6,244.2,180.6z
			"/>
		<path class="st7" d="M260.9,180.6c1.1,0,2-0.9,2-1.9s-0.9-1.9-2-1.9c-1.1,0-2,0.9-2,1.9C259,179.7,259.9,180.6,260.9,180.6z"/>
		<circle class="st7" cx="194" cy="195.4" r="1.9"/>
		<circle class="st7" cx="210.7" cy="195.4" r="1.9"/>
		<circle class="st7" cx="227.5" cy="195.4" r="1.9"/>
		<circle class="st7" cx="244.2" cy="195.4" r="1.9"/>
		<ellipse transform="matrix(0.9871 -0.1602 0.1602 0.9871 -27.9272 44.3263)" class="st7" cx="260.9" cy="195.4" rx="2" ry="2"/>
		<circle class="st7" cx="194" cy="212.1" r="1.9"/>
		<circle class="st7" cx="210.7" cy="212.1" r="1.9"/>
		<circle class="st7" cx="227.5" cy="212.1" r="1.9"/>
		<circle class="st7" cx="244.2" cy="212.1" r="1.9"/>
		<ellipse transform="matrix(0.9871 -0.1602 0.1602 0.9871 -30.609 44.5425)" class="st7" cx="260.9" cy="212.1" rx="2" ry="2"/>
		<circle class="st7" cx="194" cy="228.9" r="1.9"/>
		<circle class="st7" cx="210.7" cy="228.9" r="1.9"/>
		<circle class="st7" cx="227.5" cy="228.9" r="1.9"/>
		<circle class="st7" cx="244.2" cy="228.9" r="1.9"/>
		<ellipse transform="matrix(0.9871 -0.1602 0.1602 0.9871 -33.2907 44.7587)" class="st7" cx="260.9" cy="228.8" rx="2" ry="2"/>
		<circle class="st7" cx="194" cy="245.6" r="1.9"/>
		<circle class="st7" cx="210.7" cy="245.6" r="1.9"/>
		<circle class="st7" cx="227.5" cy="245.6" r="1.9"/>
		<circle class="st7" cx="244.2" cy="245.6" r="1.9"/>
		<ellipse transform="matrix(0.9915 -0.13 0.13 0.9915 -29.7116 36.0067)" class="st7" cx="260.9" cy="245.6" rx="1.9" ry="1.9"/>
	</g>
	<g>
		<path class="st2" d="M237,0.4c-0.8,1.2-1.5,2.4-2.2,3.7c-2,3.9-3.2,8.4-4.4,12.7c-2,7.2-4.1,14.6-9.6,19.8
			c-3.9,3.6-9.3,5.9-17.1,7.2c-2.2,0.4-4.4,0.6-6.6,0.9c-3.9,0.5-7.8,1-11.6,2c-11.4,3.1-21.4,11.2-26.6,21.9
			c-0.1,0.2-0.3,0.3-0.4,0.3c-0.1,0-0.1,0-0.2-0.1c-0.3-0.1-0.4-0.4-0.2-0.7c5.4-10.9,15.5-19.3,27.3-22.4c3.9-1,7.9-1.5,11.8-2
			c2.1-0.3,4.4-0.5,6.5-0.9c7.5-1.2,12.8-3.5,16.5-7c5.3-4.9,7.3-11.9,9.3-19.3c1.2-4.4,2.5-8.9,4.5-12.9c0.6-1.1,1.2-2.2,1.9-3.2
			C235.8,0.4,237,0.4,237,0.4z"/>
	</g>
	<g>
		<path class="st2" d="M47,189.6c-0.3,8-4.3,15.8-10.5,20.9c-5.2,4.1-11.7,6.4-18,8.5c-6.9,2.4-13.6,4.6-18.6,9.2v-1.3
			c5.1-4.4,11.8-6.7,18.2-8.9c6.2-2.1,12.6-4.3,17.6-8.3c6-4.8,9.9-12.4,10.2-20.1c0-0.3,0.2-0.5,0.5-0.5
			C46.8,189.1,47,189.4,47,189.6z"/>
	</g>
	<g>
		<path class="st2" d="M226.8,186.9c-0.4,0-0.7,0-1,0c-0.3,0-0.5-0.2-0.5-0.5c0-0.3,0.2-0.5,0.5-0.5c5.5,0.2,11-1.4,15.6-4.4
			c2.1-1.4,3.6-2.9,4.6-4.5c1.7-2.5,2.3-5.5,3-8.6c0.4-1.9,0.8-3.9,1.5-5.7c2.5-7,9.2-12.4,16.5-13.5c0.3,0,0.5,0.1,0.6,0.4
			s-0.1,0.5-0.4,0.6c-7,1.1-13.3,6.2-15.7,12.8c-0.6,1.8-1.1,3.7-1.5,5.6c-0.6,3.1-1.3,6.3-3.1,9c-1.1,1.7-2.8,3.3-4.9,4.8
			C237.5,185.2,232.1,186.9,226.8,186.9z"/>
	</g>
	<path class="st2" d="M239.7,75.3c0,3-2.4,5.5-5.5,5.5s-5.5-2.4-5.5-5.5c0-3,2.4-5.5,5.5-5.5C237.3,69.8,239.7,72.3,239.7,75.3z"/>
	<circle class="st2" cx="69.3" cy="219.5" r="7.9"/>
	<path class="st2" d="M41.3,174.3c0,1.1-0.9,2.1-2.1,2.1c-1.2,0-2.1-0.9-2.1-2.1c0-1.1,0.9-2.1,2.1-2.1
		C40.4,172.2,41.3,173.1,41.3,174.3z"/>
	<polygon class="st2" points="53.4,92.8 49.1,91.1 46.8,95.2 47.1,90.5 42.5,89.6 47.1,88.5 46.5,83.8 49,87.8 53.3,85.8 50.2,89.4 
			"/>
	<polygon class="st2" points="187.6,65.3 195,60.3 190.9,52.3 198,57.8 204.3,51.5 201.3,59.9 209.2,64 200.3,63.7 198.9,72.5 
		196.4,63.9 	"/>
	<polygon class="st2" points="225.5,212.1 217.8,209.1 213.8,216.4 214.3,208.2 206.1,206.7 214.1,204.5 213,196.3 217.5,203.3 
		225,199.7 219.8,206.1 	"/>
	<polygon class="st2" points="67.4,183.6 71.3,186 74.2,182.5 73.1,186.9 77.4,188.6 72.8,188.9 72.5,193.5 70.8,189.3 66.3,190.4 
		69.9,187.4 	"/>
	<polygon class="st2" points="258.6,126.1 253.7,124.2 251.1,128.9 251.4,123.6 246.2,122.6 251.3,121.2 250.6,115.9 253.5,120.4 
		258.3,118.1 254.9,122.3 	"/>
	<polygon class="st2" points="20.9,144.6 29.4,140.6 26.5,131.7 32.9,138.5 40.5,133 36,141.2 43.7,146.7 34.4,145 31.5,153.9 
		30.3,144.6 	"/>
	<path class="st3" d="M123.5,62.7c0,1.2-0.9,2.1-2.1,2.1s-2.1-0.9-2.1-2.1s0.9-2.1,2.1-2.1C122.6,60.6,123.5,61.6,123.5,62.7z"/>
	<circle class="st3" cx="254.1" cy="223" r="4"/>
	<polygon class="st3" points="151.9,42.5 148.6,39 144.7,41.7 147.1,37.6 143.3,34.7 148,35.7 149.5,31.1 150,35.9 154.8,36 
		150.5,37.9 	"/>
	<polygon class="st3" points="234.3,157.8 238.6,154.3 235.8,149.6 240.4,152.7 244.1,148.5 242.6,153.8 247.7,156 242.1,156.2 
		241.6,161.8 239.7,156.5 	"/>
</g>
</svg>
